<svg height="464pt" viewBox="0 -61 464.00072 464" width="464pt" xmlns="http://www.w3.org/2000/svg"><path d="m177 207h110v23h-110zm0 0"/><path d="m103.980469 206h-42.5c-6.628907 0-12 5.371094-12 12s5.371093 12 12 12h42.5c6.625 0 12-5.371094 12-12s-5.375-12-12-12zm0 0"/><path d="m382 300h82v42h-82zm0 0"/><path d="m0 300h82v42h-82zm0 0"/><path d="m450.421875 139.207031c-.105469-.101562-.058594-.132812-.160156-.238281l-11.316407-11.96875h-407.925781l-15.535156 14.382812c-.078125.074219-.085937.011719-.167969.078126-9.777344 8.332031-15.378906 20.550781-15.316406 33.394531v111.144531h464v-115.019531c.035156-12.007813-4.878906-23.5-13.578125-31.773438zm-346.441406 104.792969h-42.5c-14.359375 0-26-11.640625-26-26s11.640625-26 26-26h42.5c14.359375 0 26 11.640625 26 26s-11.640625 26-26 26zm198.019531-7c0 3.867188-3.132812 7-7 7h-125c-3.867188 0-7-3.132812-7-7v-37c0-3.867188 3.132812-7 7-7h125c3.867188 0 7 3.132812 7 7zm127-19.101562c0 14.417968-11.683594 26.101562-26.097656 26.101562h-42.800782c-14.414062 0-26.101562-11.683594-26.101562-26.101562v-.796876c0-14.414062 11.6875-26.101562 26.101562-26.101562h42.800782c14.414062 0 26.097656 11.6875 26.097656 26.101562zm0 0"/><path d="m360.101562 205h42.796876c6.683593 0 12.101562 5.417969 12.101562 12.101562v.796876c0 6.683593-5.417969 12.101562-12.101562 12.101562h-42.796876c-6.683593 0-12.101562-5.417969-12.101562-12.101562v-.796876c0-6.683593 5.417969-12.101562 12.101562-12.101562zm0 0"/><path d="m397.289062 17.820312c-3.898437-10.582031-13.914062-17.667968-25.1875-17.820312h-273.429687c-11.273437.15625-21.289063 7.238281-25.1875 17.820312l-35.15625 95.179688h394.121094zm0 0"/></svg>